/* XPM */
static char *gnu_in_net[] = {
/* columns rows colors chars-per-pixel */
"32 32 9 1",
"  c gray20",
". c #4c4c4c",
"X c #666667",
"o c gray50",
"O c gray60",
"+ c #b2b2b2",
"@ c gray80",
"# c gray90",
"$ c gray100",
/* pixels */
"$$$$$$$$$$$$$$@Oo+#$$$$$$$$$$$$$",
"$$$$$$$$$$$$@OXOXOo+$$$$$$$$$$$$",
"$$$$$$$$$#@oX+##O$@oo+#$$$$$$$$$",
"$$$$$$$#+oo+#$$@O$$#+oo+@$$$$$$$",
"$$$$$+OXO@#$$#+X.O#$$$@OXO+#$$$$",
"$$$$#.o#$$$#OoOOOOXO@$$$#@.X$$$$",
"$$$$OOO+#+OoO@$#O$#OoO+#$+OX@$$$",
"$$$#O@$X.O+#$$$+o#$$#+OX.O$+O$$$",
"$$$@o$#oX@$$#@Oo.O+#$$$O.O$@o$$$",
"$$$O+$+O#O@OOO@@+#OOO++O#X#$o@$$",
"$$#X#$O@$@OO+@@#+$#+O.O$$O+$+O$$",
"$$+O$@X#$@O#$@XXXX+$#OO#$@X##X@$",
"$#X#$O+$$+O$+. .X..+#oO+$$O+$OO$",
"$+O$@X#$@OXoO++@+++OXX+O@$+X$#o#",
"#o#$O@$#O@OO##@+#@+#O+$@O$$O+$OO",
"OX@+X@#OO@++$#####+#++@@X+#+X@+.",
"oX+o.+O.o+OO@#$#@@#@@XOOXXOO.Oo ",
"+o##o@$@O$#@@#$####@OO$#o#$OO$+o",
"$O+$+O$$O+$#++#$##+@O##O+$@o##o@",
"$@o$#o@$@o#$OO@$#++O+$+O$$o+$OO$",
"$$o+$+O$$O+++####+@+O#o@$@o$$X@$",
"$$+O$#o@$@.X@$$#++#$@.O$$X@$+O$$",
"$$$o@$+O$O++OO#@+++OOXO#+o$#o@$$",
"$$$OO$#XO+$$#+OOXOO@#$+Oo@$@o$$$",
"$$$#X##..+#$$$#OX@$$$#@X.#$O+$$$",
"$$$$O+O+@OoO@$$@+$$@Ooo+OO@X#$$$",
"$$$$+ O$$$#+oO@@+@OO+@$$$+.O$$$$",
"$$$$$+XoO#$$$+OX.o+#$$$@OoX@$$$$",
"$$$$$$$@OoO@$$$+O#$$#+oo+@#$$$$$",
"$$$$$$$$$#OXX@$#O$#+Xo@#$$$$$$$$",
"$$$$$$$$$$$#+oOOOOXO@$$$$$$$$$$$",
"$$$$$$$$$$$$$#+X O@$$$$$$$$$$$$$"
};
